<svg xmlns="http://www.w3.org/2000/svg" width="822.25" height="441.906" viewBox="0 0 822.25 441.906">
  <defs>
    <style>
      .cls-1 {
        fill: #fff;
        fill-rule: evenodd;
      }
    </style>
  </defs>
  <path id="piękna" class="cls-1" d="M210.535,580.938a16.6,16.6,0,0,1-5.949-4.406,21.314,21.314,0,0,1-3.634-6.279,61.558,61.558,0,0,1-2.2-7.159q-0.883-3.636-1.653-7.16a33.312,33.312,0,0,0-1.982-6.278,11.536,11.536,0,0,0-3.25-4.406,8.217,8.217,0,0,0-5.342-1.653,9.5,9.5,0,0,0-5.617,1.708,14.756,14.756,0,0,0-4.021,4.24,20.476,20.476,0,0,0-2.423,5.563,21.61,21.61,0,0,0-.826,5.673,26.294,26.294,0,0,0,3.029,12.171,31.776,31.776,0,0,0,8.977,10.519,47.38,47.38,0,0,0,14.6,7.435,64.32,64.32,0,0,0,19.881,2.809,76.533,76.533,0,0,0,23.462-3.525A58.4,58.4,0,0,0,262.8,580a48.331,48.331,0,0,0,13-16.413,49.668,49.668,0,0,0,4.791-22.2,47.8,47.8,0,0,0-2.754-16.191,72.556,72.556,0,0,0-7.269-14.76,111.608,111.608,0,0,0-10.3-13.6q-5.783-6.552-11.786-12.777T236.7,471.725A131.842,131.842,0,0,1,226.4,459.5a64.41,64.41,0,0,1-7.27-12.392,31.778,31.778,0,0,1-2.754-12.887,30.706,30.706,0,0,1,1.432-9.914,20.215,20.215,0,0,1,3.8-6.884,15.594,15.594,0,0,1,5.287-4.021,14.161,14.161,0,0,1,5.893-1.321q5.506,0,8.371,2.478a15.433,15.433,0,0,1,4.3,6.113,36.967,36.967,0,0,1,2.093,7.986,80.221,80.221,0,0,0,1.6,7.986,16.518,16.518,0,0,0,2.864,6.113q1.924,2.478,6,2.478a11.2,11.2,0,0,0,5.948-1.542,14.042,14.042,0,0,0,4.185-3.855,16.049,16.049,0,0,0,2.424-5.122,20.6,20.6,0,0,0,.771-5.452,21.109,21.109,0,0,0-2.864-10.629,26.022,26.022,0,0,0-8.427-8.7,45.983,45.983,0,0,0-13.548-5.838,70.365,70.365,0,0,0-18.229-2.148,52.017,52.017,0,0,0-18.01,3.084,45.143,45.143,0,0,0-14.76,8.757,41.12,41.12,0,0,0-10.023,13.769,43.182,43.182,0,0,0-3.69,18.119,42.642,42.642,0,0,0,4.571,19.221,100.289,100.289,0,0,0,11.455,17.844q6.883,8.649,14.87,16.963t14.871,16.743a102.613,102.613,0,0,1,11.455,17.128,38.171,38.171,0,0,1,4.571,17.954,44.142,44.142,0,0,1-2.093,14.54,27.885,27.885,0,0,1-5.452,9.638,19.492,19.492,0,0,1-7.655,5.287,24.822,24.822,0,0,1-8.7,1.6A22.127,22.127,0,0,1,210.535,580.938Zm1.652-188.245,39.1-16.632a13.8,13.8,0,0,0,4.571-3.36,7.268,7.268,0,0,0,1.927-5.011,10.474,10.474,0,0,0-.771-3.911,12.363,12.363,0,0,0-2.092-3.469,10.6,10.6,0,0,0-3.085-2.479,7.88,7.88,0,0,0-3.745-.936,9.287,9.287,0,0,0-4.185,1.047,18.489,18.489,0,0,0-3.966,2.7l-29.96,28.969Zm222.115,115a107.243,107.243,0,0,1-3.58,17.514,44.338,44.338,0,0,1-5.507,12.226q-3.2,4.626-6.94,4.626-3.526,0-6.113-4.681a57.784,57.784,0,0,1-4.792-13.6q-2.2-8.922-4.185-21.92t-4.076-29.52a52.481,52.481,0,0,0-2.093-9.968,16.484,16.484,0,0,0-3.469-6.169,11.031,11.031,0,0,0-5.4-3.084,32.926,32.926,0,0,0-7.985-.826q-10.8,0-14.375,5.177t-1.927,15.531q0.66,3.635,1.211,8.371t1.157,10.189q0.6,5.452,1.377,11.4t1.872,12.007a93.689,93.689,0,0,1-3.084,11.07,54.128,54.128,0,0,1-3.745,8.536,21.6,21.6,0,0,1-4.186,5.508,6.746,6.746,0,0,1-4.516,1.982q-3.526,0-6.113-4.351t-4.791-12.887q-2.2-8.535-4.131-21.2t-3.91-29.3a65.7,65.7,0,0,0-1.432-6.94,21.94,21.94,0,0,0-3.36-7.214,18.978,18.978,0,0,0-6.444-5.618q-4.075-2.256-10.684-2.258a38.119,38.119,0,0,0-8.812.991,48.759,48.759,0,0,0-7.82,2.534,44.006,44.006,0,0,0-6.775,3.58,61.925,61.925,0,0,0-5.672,4.13l2.313,2.754a17.281,17.281,0,0,1,2.864-1.873,7.084,7.084,0,0,1,3.194-.661q3.524,0,5.012,2.424a19.808,19.808,0,0,1,2.258,6.829q0.66,4.848,1.322,11.455t1.652,14.21q0.991,7.6,2.423,15.751t3.58,15.861a116.445,116.445,0,0,0,5.122,14.65,54.852,54.852,0,0,0,7.049,12.172,31.772,31.772,0,0,0,9.418,8.261,24.469,24.469,0,0,0,12.282,3.029,23.1,23.1,0,0,0,10.464-2.423,31.341,31.341,0,0,0,8.867-6.72,53.521,53.521,0,0,0,7.325-10.078,87.126,87.126,0,0,0,5.838-12.5,91.85,91.85,0,0,0,5.122,12.392,45.926,45.926,0,0,0,6.774,10.078,29.714,29.714,0,0,0,8.757,6.774,24.168,24.168,0,0,0,11.07,2.479A23.277,23.277,0,0,0,420.7,563.92a42.824,42.824,0,0,0,10.905-11.9,82.269,82.269,0,0,0,8.1-17.018,157.81,157.81,0,0,0,5.508-19.827,189.057,189.057,0,0,0,3.139-20.378q0.991-10.132.991-18.615,0-5.947-.385-11.18a39.094,39.094,0,0,0-1.377-8.426,6.251,6.251,0,0,0-2.313-3.415,9.191,9.191,0,0,0-4.627-.881,19.4,19.4,0,0,0-3.139.33,16.932,16.932,0,0,0-3.745,1.1,12.532,12.532,0,0,0-3.139,1.872,3.444,3.444,0,0,0-1.322,2.754,8.734,8.734,0,0,0,.991,3.8q0.992,2.04,2.148,5.177a57.13,57.13,0,0,1,2.148,7.876,60.17,60.17,0,0,1,.992,12.006A161.83,161.83,0,0,1,434.3,507.689Zm71.652-37.12a47.625,47.625,0,0,0-.386-5.618,13.674,13.674,0,0,0-2.258-6,14.287,14.287,0,0,0-5.838-4.736q-3.964-1.926-11.125-1.928a38.119,38.119,0,0,0-8.812.991,48.759,48.759,0,0,0-7.82,2.534,44.006,44.006,0,0,0-6.775,3.58,61.651,61.651,0,0,0-5.672,4.13l2.313,2.754a17.2,17.2,0,0,1,2.864-1.873,7.084,7.084,0,0,1,3.194-.661q3.524,0,5.012,2.369a10.246,10.246,0,0,1,1.487,5.562v85.035a17.462,17.462,0,0,0,.385,3.194,8.242,8.242,0,0,0,2.038,3.856A13.34,13.34,0,0,0,479.518,567a24.436,24.436,0,0,0,9.142,1.377,27.388,27.388,0,0,0,9.253-1.267,14.383,14.383,0,0,0,5.232-3.084,8.247,8.247,0,0,0,2.313-3.855,15.1,15.1,0,0,0,.5-3.47V470.569ZM470.1,433.118a14.616,14.616,0,0,0,3.855,4.792,19.831,19.831,0,0,0,5.728,3.249,20.145,20.145,0,0,0,7.105,1.212,19.839,19.839,0,0,0,6.994-1.212,19.079,19.079,0,0,0,5.673-3.249,14.972,14.972,0,0,0,3.8-4.792,13.416,13.416,0,0,0,0-11.841,15.406,15.406,0,0,0-3.8-4.9,18.515,18.515,0,0,0-5.673-3.3,19.884,19.884,0,0,0-6.994-1.212,20.191,20.191,0,0,0-7.105,1.212,19.226,19.226,0,0,0-5.728,3.3,15.029,15.029,0,0,0-3.855,4.9A13.416,13.416,0,0,0,470.1,433.118ZM605.638,490.4a27.468,27.468,0,0,0,7.931-7.214,15.538,15.538,0,0,0,2.974-9.308,17.913,17.913,0,0,0-1.983-8.206,19.644,19.644,0,0,0-6-6.884,31.757,31.757,0,0,0-10.078-4.737,53.476,53.476,0,0,0-27.042-.055,60.052,60.052,0,0,0-13.053,5.067,62.962,62.962,0,0,0-12.171,8.427,56.136,56.136,0,0,0-10.134,11.785,59.012,59.012,0,0,0-6.884,15.091,63.263,63.263,0,0,0-2.534,18.395q0,13.878,4.241,24.232a51,51,0,0,0,11.29,17.294,46.36,46.36,0,0,0,16.137,10.409,51.93,51.93,0,0,0,18.67,3.47q1.431,0,2.589-.111t2.368-.11a35.113,35.113,0,0,0-6.719,8.922,23.407,23.407,0,0,0-2.533,11.015q0,8.592,6.388,13.053t17.073,4.461a46.876,46.876,0,0,0,8.7-.771,58.129,58.129,0,0,0,7.545-1.928,50.23,50.23,0,0,0,6.169-2.478q2.7-1.322,4.461-2.423l-1.763-4.076a62.568,62.568,0,0,1-6.554,2.148,37.362,37.362,0,0,1-9.968,1.157q-7.161,0-11.125-3.415t-3.965-9.8a25.68,25.68,0,0,1,1.211-8.427,19.533,19.533,0,0,1,3.47-6.168,29.133,29.133,0,0,1,5.507-5.012q3.247-2.313,7.215-4.846a64.687,64.687,0,0,0,9.418-7.38,78.586,78.586,0,0,0,6.774-7.27l-2.754-2.644q-2.643,2.313-5.287,4.351a40.15,40.15,0,0,1-5.507,3.58,28.352,28.352,0,0,1-6.169,2.423,27.652,27.652,0,0,1-7.159.881,28.216,28.216,0,0,1-10.134-1.762,32.144,32.144,0,0,1-8.426-4.736,37.789,37.789,0,0,1-6.719-6.774,44,44,0,0,1-4.9-7.986,45.529,45.529,0,0,1-3.029-8.316,31.248,31.248,0,0,1-1.047-7.656Zm-44.61,16.633q0-3.082.11-7.545t0.661-9.308a95.479,95.479,0,0,1,1.6-9.638A38.129,38.129,0,0,1,566.26,472a18.342,18.342,0,0,1,4.626-6.114,10.167,10.167,0,0,1,6.774-2.368,7.636,7.636,0,0,1,5.288,1.983,15.791,15.791,0,0,1,3.634,4.957,24.607,24.607,0,0,1,2.038,6.333,34.82,34.82,0,0,1,.606,6.113,27.492,27.492,0,0,1-.275,4.241,10.724,10.724,0,0,1-.826,2.864,6.172,6.172,0,0,1-1.487,1.983,17.444,17.444,0,0,1-2.369,1.707Zm129.865-45.271q9.143,0,13.273-4.241t4.131-11.4a12.952,12.952,0,0,0-.5-3.525,9.922,9.922,0,0,0-1.487-3.139,7.507,7.507,0,0,0-2.478-2.2,7.029,7.029,0,0,0-3.47-.826,7.139,7.139,0,0,0-5.012,1.762,6.24,6.24,0,0,0-1.927,4.846,5,5,0,0,0,1.1,3.635,8.043,8.043,0,0,0,2.479,1.708q1.375,0.606,2.478.991a1.472,1.472,0,0,1,1.1,1.487q0,2.975-8.811,2.974H673.82V421.332h-8.812a38.308,38.308,0,0,1-7.049,15.531,44.882,44.882,0,0,1-10.74,10.024,42.877,42.877,0,0,1-11.29,5.342,33.233,33.233,0,0,1-8.592,1.6v7.931h12.337v81.62a26.839,26.839,0,0,0,2.093,11.125,22.605,22.605,0,0,0,5.562,7.711,21.861,21.861,0,0,0,7.931,4.516,30.313,30.313,0,0,0,9.308,1.432,36.484,36.484,0,0,0,14.264-2.424,30.545,30.545,0,0,0,15.421-13.768q2.256-4.185,3.91-7.711l-3.414-1.542a23.347,23.347,0,0,1-3.415,5.4,19.317,19.317,0,0,1-3.965,3.746,8.875,8.875,0,0,1-5.288,1.652,8.068,8.068,0,0,1-6.058-2.258q-2.205-2.258-2.2-8.1v-81.4h17.073Zm20.378,73.8a53.415,53.415,0,0,0,11.18,18.175,45.9,45.9,0,0,0,16.247,10.96,51.867,51.867,0,0,0,19.386,3.69,49.334,49.334,0,0,0,19.386-3.91,46.455,46.455,0,0,0,16.247-11.511,56.823,56.823,0,0,0,11.18-18.725,72.286,72.286,0,0,0,4.186-25.555q0-14.539-4.186-25.169a50.335,50.335,0,0,0-11.18-17.569,44.25,44.25,0,0,0-16.247-10.3,56.354,56.354,0,0,0-19.386-3.36,52.544,52.544,0,0,0-19.386,3.635,45.276,45.276,0,0,0-16.247,10.905,53.522,53.522,0,0,0-11.18,18.119q-4.188,10.851-4.186,25.279T711.271,535.556Zm62.95-9.032a86.5,86.5,0,0,1-2.368,15.421,29.5,29.5,0,0,1-5.067,11.015,10.546,10.546,0,0,1-8.7,4.186,10.707,10.707,0,0,1-8.7-4.021,27.818,27.818,0,0,1-5.067-10.629A78.454,78.454,0,0,1,742,527.461q-0.552-8.427-.55-17.239T742,493.039a77.256,77.256,0,0,1,2.313-14.925,27.84,27.84,0,0,1,5.067-10.574,10.713,10.713,0,0,1,8.7-4.021,10.974,10.974,0,0,1,8.7,3.8,25.771,25.771,0,0,1,5.067,10.189,76.512,76.512,0,0,1,2.368,14.6q0.6,8.207.606,17.018T774.221,526.524ZM399.984,787.718a14.019,14.019,0,0,0,.418,2.983,8.246,8.246,0,0,0,2.094,3.663,13.354,13.354,0,0,0,4.867,3.14,23.637,23.637,0,0,0,8.74,1.309,24.548,24.548,0,0,0,8.74-1.256,13.134,13.134,0,0,0,4.815-2.983,7.783,7.783,0,0,0,2.041-3.612,15.372,15.372,0,0,0,.419-3.244v-51.08q1.255,1.154,3.349,2.878a31.463,31.463,0,0,0,5.234,3.4,34.882,34.882,0,0,0,7.484,2.826,39.653,39.653,0,0,0,10.1,1.152,31.319,31.319,0,0,0,25.382-12.979,54.311,54.311,0,0,0,8.374-17.533q3.192-10.728,3.193-26.011a92.73,92.73,0,0,0-2.617-23.237,50.675,50.675,0,0,0-7.484-16.852,32.29,32.29,0,0,0-11.671-10.258,34.573,34.573,0,0,0-23.08-2.512,33.7,33.7,0,0,0-7.222,2.669,33.177,33.177,0,0,0-6.281,4.135,28.726,28.726,0,0,0-4.972,5.338,12.412,12.412,0,0,0-1.36-3.82,15.257,15.257,0,0,0-3.4-4.292,20.51,20.51,0,0,0-5.6-3.506,20.041,20.041,0,0,0-8.06-1.466,36.226,36.226,0,0,0-8.373.942,46.31,46.31,0,0,0-7.432,2.408,41.753,41.753,0,0,0-6.437,3.4,58.643,58.643,0,0,0-5.391,3.925l2.2,2.617a16.281,16.281,0,0,1,2.722-1.78,6.719,6.719,0,0,1,3.035-.628q3.35,0,4.763,2.251a9.732,9.732,0,0,1,1.413,5.285V787.718Zm32.134-124.35a10.671,10.671,0,0,1,1.151-4.605,16.889,16.889,0,0,1,2.983-4.344,17.676,17.676,0,0,1,4.135-3.245,9.249,9.249,0,0,1,4.605-1.308,12.575,12.575,0,0,1,7.17,2.145,16.947,16.947,0,0,1,5.5,6.909,45.147,45.147,0,0,1,3.506,12.508,126.248,126.248,0,0,1,1.2,18.945,146.73,146.73,0,0,1-.942,17.114,66.6,66.6,0,0,1-3.036,14.026,26.838,26.838,0,0,1-5.338,9.525,10.858,10.858,0,0,1-13.869,1.78,16.627,16.627,0,0,1-4.03-3.926,17.21,17.21,0,0,1-2.3-4.291,10.664,10.664,0,0,1-.733-2.931v-58.3Zm116.394-9.42a45.3,45.3,0,0,0-.366-5.339,12.987,12.987,0,0,0-2.146-5.7,13.585,13.585,0,0,0-5.547-4.5q-3.769-1.83-10.572-1.832a36.229,36.229,0,0,0-8.374.942,46.31,46.31,0,0,0-7.432,2.408,41.845,41.845,0,0,0-6.437,3.4,58.487,58.487,0,0,0-5.39,3.925l2.2,2.617a16.277,16.277,0,0,1,2.721-1.78,6.72,6.72,0,0,1,3.036-.628q3.348,0,4.762,2.251a9.732,9.732,0,0,1,1.413,5.285V735.8a16.551,16.551,0,0,0,.367,3.035,7.814,7.814,0,0,0,1.936,3.664,12.669,12.669,0,0,0,4.71,3.087,23.211,23.211,0,0,0,8.688,1.309,26.021,26.021,0,0,0,8.792-1.2,13.656,13.656,0,0,0,4.972-2.931,7.815,7.815,0,0,0,2.2-3.663,14.33,14.33,0,0,0,.471-3.3V653.948Zm-34.07-35.589a13.874,13.874,0,0,0,3.663,4.554A18.825,18.825,0,0,0,523.548,626a19.142,19.142,0,0,0,6.751,1.152A18.847,18.847,0,0,0,536.946,626a18.117,18.117,0,0,0,5.391-3.087,14.226,14.226,0,0,0,3.611-4.554,12.753,12.753,0,0,0,0-11.252,14.649,14.649,0,0,0-3.611-4.658,17.61,17.61,0,0,0-5.391-3.14,18.891,18.891,0,0,0-6.647-1.151,19.187,19.187,0,0,0-6.751,1.151,18.283,18.283,0,0,0-5.443,3.14,14.276,14.276,0,0,0-3.663,4.658A12.744,12.744,0,0,0,514.442,618.359Zm128.8,54.43a26.123,26.123,0,0,0,7.536-6.856,14.768,14.768,0,0,0,2.826-8.845,17.023,17.023,0,0,0-1.884-7.8,18.672,18.672,0,0,0-5.7-6.542,30.171,30.171,0,0,0-9.577-4.5,50.793,50.793,0,0,0-25.7-.052,56.97,56.97,0,0,0-12.4,4.815,59.772,59.772,0,0,0-11.566,8.007,53.319,53.319,0,0,0-9.63,11.2,56.051,56.051,0,0,0-6.542,14.34,60.12,60.12,0,0,0-2.408,17.48q0,13.188,4.03,23.028A48.484,48.484,0,0,0,582.949,733.5a44.046,44.046,0,0,0,15.334,9.891,49.347,49.347,0,0,0,17.742,3.3q1.359,0,2.46-.1t2.25-.105a33.385,33.385,0,0,0-6.385,8.479,22.236,22.236,0,0,0-2.407,10.467q0,8.164,6.071,12.4t16.224,4.239a44.591,44.591,0,0,0,8.269-.732,55.122,55.122,0,0,0,7.17-1.832,47.782,47.782,0,0,0,5.862-2.355q2.564-1.257,4.239-2.3L658.1,770.97a59.367,59.367,0,0,1-6.228,2.041,35.5,35.5,0,0,1-9.473,1.1q-6.806,0-10.571-3.244t-3.769-9.316a24.4,24.4,0,0,1,1.152-8.008,18.568,18.568,0,0,1,3.3-5.861,27.661,27.661,0,0,1,5.233-4.763q3.087-2.2,6.856-4.605a61.393,61.393,0,0,0,8.95-7.013,74.763,74.763,0,0,0,6.437-6.909l-2.617-2.512q-2.511,2.2-5.024,4.135a38.333,38.333,0,0,1-5.233,3.4,26.9,26.9,0,0,1-5.862,2.3,26.265,26.265,0,0,1-6.8.838,26.817,26.817,0,0,1-9.629-1.675,30.529,30.529,0,0,1-8.008-4.5,35.953,35.953,0,0,1-6.385-6.437,41.8,41.8,0,0,1-4.658-7.589,43.248,43.248,0,0,1-2.878-7.9,29.7,29.7,0,0,1-.994-7.275Zm-42.392,15.805q0-2.93.1-7.17t0.629-8.845a90.6,90.6,0,0,1,1.517-9.159,36.28,36.28,0,0,1,2.722-8.112,17.417,17.417,0,0,1,4.4-5.809,9.656,9.656,0,0,1,6.437-2.25,7.253,7.253,0,0,1,5.024,1.884,15.016,15.016,0,0,1,3.455,4.71,23.416,23.416,0,0,1,1.936,6.019,33.07,33.07,0,0,1,.576,5.809,26.1,26.1,0,0,1-.262,4.03,10.146,10.146,0,0,1-.785,2.721,5.844,5.844,0,0,1-1.413,1.884,16.45,16.45,0,0,1-2.251,1.623Zm105.613-88.971a44.2,44.2,0,0,0-.366-5.286,12.964,12.964,0,0,0-2.146-5.652,13.59,13.59,0,0,0-5.548-4.5q-3.768-1.83-10.571-1.831a36.229,36.229,0,0,0-8.374.942,48.193,48.193,0,0,0-7.484,2.407,38.687,38.687,0,0,0-6.437,3.4,62.566,62.566,0,0,0-5.339,3.925l2.094,2.512a13.116,13.116,0,0,1,2.774-1.727,7.623,7.623,0,0,1,3.087-.576q3.35,0,4.763,2.251a9.735,9.735,0,0,1,1.413,5.286V735.8a16.623,16.623,0,0,0,.366,3.035,8.026,8.026,0,0,0,1.884,3.664,12.137,12.137,0,0,0,4.658,3.087,23.214,23.214,0,0,0,8.688,1.309,26.5,26.5,0,0,0,8.845-1.2,14.081,14.081,0,0,0,5.024-2.878,7.547,7.547,0,0,0,2.2-3.559,13.685,13.685,0,0,0,.471-3.245V682q1.884-4.605,4.815-10.206a79.081,79.081,0,0,1,6.542-10.467,46.468,46.468,0,0,1,7.589-8.164q3.976-3.3,7.85-3.3a5.551,5.551,0,0,1,3.088.732,5.481,5.481,0,0,1,1.674,1.675,4.634,4.634,0,0,1,.681,1.936c0.069,0.664.1,1.135,0.1,1.413a38.586,38.586,0,0,1-.733,6.8,29.87,29.87,0,0,1-3.664,9.106,67.469,67.469,0,0,1-8.687,11.462,109.621,109.621,0,0,1-15.806,13.764q7.431,17.8,14.34,31.088a229.108,229.108,0,0,0,13.45,22.923,112.116,112.116,0,0,0,12.77,15.91,68.279,68.279,0,0,0,12.3,10.048,41.679,41.679,0,0,0,12.09,5.234,51.4,51.4,0,0,0,12.194,1.465,94.138,94.138,0,0,0,11.723-.628,62.263,62.263,0,0,0,8.688-1.675,40.314,40.314,0,0,0,6.7-2.459q2.929-1.413,5.757-2.984l-1.989-3.663a23.064,23.064,0,0,1-2.407,1.047,18.1,18.1,0,0,1-2.3.732,10.3,10.3,0,0,1-2.512.314q-7.223,0-15.178-4.605t-16.59-14.288A179.351,179.351,0,0,1,761,730.515a360.9,360.9,0,0,1-19.155-35.85,52.513,52.513,0,0,0,12.142-8.322,43.73,43.73,0,0,0,7.693-9.42,35.937,35.937,0,0,0,4.082-9.839,40.689,40.689,0,0,0,1.2-9.577,23.222,23.222,0,0,0-.994-6.071,20.882,20.882,0,0,0-3.454-6.856,21.689,21.689,0,0,0-6.438-5.653,19.245,19.245,0,0,0-9.943-2.355,29.061,29.061,0,0,0-12.352,2.617,46.034,46.034,0,0,0-10.467,6.7,72.132,72.132,0,0,0-9,9.159q-4.187,5.077-7.85,10v-65.42Zm142.4,115.819a154.677,154.677,0,0,1-1.779,16.59,70.343,70.343,0,0,1-2.879,11.671,31.051,31.051,0,0,1-3.872,7.694,16.307,16.307,0,0,1-4.868,4.6,20.621,20.621,0,0,1-5.809,2.3l1.152,4.292a51.06,51.06,0,0,0,8.949-1.2,45.472,45.472,0,0,0,10.833-3.925,51.331,51.331,0,0,0,11.2-7.8,49.489,49.489,0,0,0,9.944-12.823,75.513,75.513,0,0,0,7.118-19.05,112.769,112.769,0,0,0,2.721-26.377,143.911,143.911,0,0,0-1.989-26.115q-1.989-10.519-5.757-16.9a22.5,22.5,0,0,0-9.263-9.106,28.063,28.063,0,0,0-12.613-2.722,24.081,24.081,0,0,0-6.332.838,30.393,30.393,0,0,0-5.862,2.25,39.438,39.438,0,0,0-5.234,3.193,43.675,43.675,0,0,0-4.448,3.663,57.078,57.078,0,0,0-8.793,9.944,54.957,54.957,0,0,0-.366-5.705,16.841,16.841,0,0,0-2.146-6.542,15.007,15.007,0,0,0-5.547-5.39q-3.768-2.25-10.572-2.251a36.229,36.229,0,0,0-8.374.942,46.3,46.3,0,0,0-7.431,2.408,41.81,41.81,0,0,0-6.438,3.4,58.623,58.623,0,0,0-5.39,3.925l2.2,2.617a16.277,16.277,0,0,1,2.721-1.78,6.723,6.723,0,0,1,3.036-.628q3.348,0,4.762,2.251a9.732,9.732,0,0,1,1.413,5.285V735.8a14.654,14.654,0,0,0,.419,3.035,7.89,7.89,0,0,0,2.093,3.664,13.72,13.72,0,0,0,4.868,3.087,23.63,23.63,0,0,0,8.74,1.309,25.559,25.559,0,0,0,8.74-1.2,12.61,12.61,0,0,0,4.815-2.931,7.756,7.756,0,0,0,2.041-3.663,16.084,16.084,0,0,0,.418-3.3V665.88a25.936,25.936,0,0,0,2.042-3.14,30.506,30.506,0,0,1,2.93-4.187,19.906,19.906,0,0,1,4.083-3.716,9.272,9.272,0,0,1,5.39-1.622,10.207,10.207,0,0,1,4.92,1.308q2.406,1.311,4.4,5.443A44.405,44.405,0,0,1,848.238,672a146.467,146.467,0,0,1,1.2,21.091Q849.442,705.866,848.866,715.442Zm101.479,1.1a15.078,15.078,0,0,1-1.047,5.443,18.086,18.086,0,0,1-2.826,4.92,15.356,15.356,0,0,1-4.187,3.611,9.972,9.972,0,0,1-5.128,1.413,9.656,9.656,0,0,1-4.187-.942,8.69,8.69,0,0,1-3.507-3.3,19.651,19.651,0,0,1-2.407-6.333,47.115,47.115,0,0,1-.89-10.048,37.6,37.6,0,0,1,1.465-11.043,24.935,24.935,0,0,1,3.978-8.008,17.21,17.21,0,0,1,5.809-4.919,15.169,15.169,0,0,1,6.961-1.675,6.6,6.6,0,0,1,4.291,1.361A4.829,4.829,0,0,1,950.345,691v25.54Zm-4.239-66.728q4.553,4.659,4.553,12.4A19.227,19.227,0,0,1,947.885,672a17.041,17.041,0,0,1-8.844,7.169q-8.165,3.246-15.963,6.176a66.814,66.814,0,0,0-13.921,7.065,33.647,33.647,0,0,0-9.891,10.206q-3.769,6.072-3.769,15.6a34.783,34.783,0,0,0,2.251,13.293,24.385,24.385,0,0,0,5.966,8.845,23.23,23.23,0,0,0,8.426,4.972,30.6,30.6,0,0,0,9.735,1.57,35.866,35.866,0,0,0,7.693-.838,32.584,32.584,0,0,0,7.589-2.721,37.689,37.689,0,0,0,7.379-4.92,44.474,44.474,0,0,0,6.961-7.536q1.569,8.164,6.7,12.09a18.778,18.778,0,0,0,11.724,3.925,27.019,27.019,0,0,0,9.525-1.57,30.167,30.167,0,0,0,12.665-8.793q2.2-2.615,3.768-4.815l-2.617-2.2a27.913,27.913,0,0,1-2.878,2.879,5.247,5.247,0,0,1-3.507,1.413,3.956,3.956,0,0,1-2.407-.628,3.916,3.916,0,0,1-1.256-1.57,6.513,6.513,0,0,1-.523-2.094q-0.106-1.15-.105-2.093V668.288a28.737,28.737,0,0,0-3.4-14.445A29.283,29.283,0,0,0,970.076,644a39.592,39.592,0,0,0-13.137-5.652,67.79,67.79,0,0,0-29.2-.367,44.2,44.2,0,0,0-12.194,4.344,26.164,26.164,0,0,0-8.74,7.484,17.946,17.946,0,0,0-3.35,10.938q0,6.6,3.612,10.572a12.18,12.18,0,0,0,9.472,3.978,11.711,11.711,0,0,0,4.239-.785,10.911,10.911,0,0,0,5.967-5.443,9.113,9.113,0,0,0,.889-4.03,6.774,6.774,0,0,0-1.622-4.972,12.088,12.088,0,0,0-3.611-2.512q-1.989-.888-3.611-1.57a2.321,2.321,0,0,1-1.623-2.251,4.626,4.626,0,0,1,1.256-2.878,12.423,12.423,0,0,1,3.455-2.774,22.736,22.736,0,0,1,5.233-2.093,24.73,24.73,0,0,1,6.594-.838Q941.553,645.155,946.106,649.813Z" transform="translate(-173.625 -356.906)"/>
</svg>
